<?xml version="1.0" standalone="no"?>
<!DOCTYPE svg PUBLIC "-//W3C//DTD SVG 20010904//EN"
 "http://www.w3.org/TR/2001/REC-SVG-20010904/DTD/svg10.dtd">
<svg version="1.0" xmlns="http://www.w3.org/2000/svg"
 width="1268.000000pt" height="1268.000000pt" viewBox="0 0 1268.000000 1268.000000"
 preserveAspectRatio="xMidYMid meet">
<metadata>
Created by potrace 1.11, written by Peter Selinger 2001-2013
</metadata>
<g transform="translate(0.000000,1268.000000) scale(0.100000,-0.100000)"
fill="#000000" stroke="none">
<path d="M7245 8779 c-33 -55 -66 -107 -73 -117 -20 -28 -172 -273 -172 -278
0 -3 -5 -10 -10 -17 -15 -18 -166 -259 -206 -328 -2 -4 57 -103 131 -220 74
-118 153 -245 176 -284 23 -38 46 -71 51 -73 4 -2 8 -8 8 -12 0 -9 70 -124 90
-147 5 -7 10 -15 10 -18 0 -3 20 -36 43 -73 24 -37 65 -101 90 -142 26 -41 50
-80 55 -85 5 -6 11 -15 13 -21 5 -11 95 -156 151 -242 21 -31 41 -64 45 -72 3
-8 25 -44 48 -80 88 -136 131 -206 138 -220 4 -8 35 -59 70 -113 34 -53 109
-172 166 -265 58 -92 119 -189 136 -217 18 -27 53 -83 79 -123 25 -40 46 -77
46 -82 0 -6 4 -10 9 -10 5 0 11 -8 14 -17 4 -10 49 -85 101 -168 52 -82 104
-163 114 -180 10 -16 35 -55 54 -85 37 -56 114 -181 190 -305 23 -38 46 -71
50 -73 5 -2 8 -10 8 -18 0 -8 5 -14 10 -14 6 0 10 -6 10 -13 0 -11 98 -13 530
-13 421 0 530 3 526 13 -3 7 -25 43 -49 80 -24 37 -73 114 -108 171 -35 56
-76 121 -91 145 -24 38 -50 80 -105 172 -10 16 -21 34 -26 40 -4 5 -22 33 -39
60 -17 28 -46 73 -63 100 -17 28 -100 160 -184 295 -84 135 -184 295 -223 355
-38 61 -72 117 -75 125 -4 8 -9 17 -13 20 -4 3 -33 48 -65 100 -53 86 -86 139
-210 339 -22 35 -56 89 -76 120 -20 31 -67 106 -104 166 -97 155 -143 228
-152 240 -17 22 -44 71 -50 88 -3 9 -9 17 -14 17 -5 0 -9 6 -9 14 0 7 -7 19
-15 26 -8 7 -21 24 -28 39 -17 33 -39 72 -50 85 -5 6 -16 25 -26 41 -10 17
-78 124 -150 239 -72 115 -131 213 -131 217 0 5 -4 9 -10 9 -5 0 -10 7 -10 15
0 8 -4 15 -10 15 -5 0 -10 5 -10 11 0 6 -12 29 -27 52 -16 23 -33 51 -40 62
-7 11 -52 83 -100 159 -48 76 -97 154 -108 172 -52 87 -260 416 -265 419 -3 1
-32 -42 -65 -96z"/>
<path d="M5563 8823 c-15 -27 -31 -49 -35 -51 -4 -2 -8 -10 -8 -18 0 -8 -4
-14 -10 -14 -5 0 -10 -4 -10 -9 0 -8 -103 -177 -205 -336 -66 -104 -203 -322
-213 -342 -12 -22 -9 -27 498 -833 50 -80 97 -154 103 -165 7 -11 24 -39 40
-62 15 -23 27 -44 27 -46 0 -3 25 -42 55 -86 30 -45 54 -84 54 -87 -1 -3 6
-15 15 -27 9 -12 37 -56 63 -97 25 -41 62 -100 82 -130 20 -30 36 -57 36 -60
0 -3 14 -25 31 -50 31 -45 191 -300 209 -332 6 -10 62 -100 125 -200 63 -100
117 -186 119 -192 2 -6 7 -13 11 -16 6 -4 32 -45 75 -118 39 -66 211 -338 216
-342 3 -3 8 -10 10 -16 8 -21 234 -379 241 -382 5 -2 8 -8 8 -13 0 -5 24 -47
53 -92 28 -46 57 -92 64 -103 6 -10 51 -82 100 -159 48 -77 89 -145 91 -152 2
-7 8 -13 13 -13 5 0 9 -4 9 -9 0 -5 22 -42 48 -83 26 -40 58 -89 69 -108 29
-47 74 -120 127 -205 l44 -70 530 0 531 0 -21 35 c-12 19 -32 50 -45 67 -13
18 -22 33 -19 33 4 0 -49 86 -71 116 -4 5 -14 21 -22 35 -50 84 -83 134 -98
151 -10 11 -18 23 -17 27 0 3 -18 35 -41 71 -23 36 -77 122 -121 193 -43 70
-107 171 -141 225 -35 53 -66 104 -70 112 -4 8 -14 26 -24 40 -47 70 -115 178
-127 200 -7 14 -36 62 -65 107 -29 44 -81 128 -116 185 -36 56 -68 105 -73
106 -4 2 -8 8 -8 14 0 6 -73 126 -162 267 -88 141 -210 334 -270 428 -59 95
-108 177 -108 182 0 5 -4 11 -8 13 -8 3 -107 158 -127 198 -5 11 -13 20 -17
20 -5 0 -8 5 -8 10 0 6 -29 56 -65 111 -36 55 -65 104 -65 109 0 6 -4 10 -9
10 -5 0 -11 6 -13 13 -3 12 -229 378 -315 508 -23 37 -43 70 -43 73 0 4 -5 12
-11 19 -5 7 -28 41 -51 77 -22 36 -52 83 -66 105 -118 186 -142 225 -142 231
0 2 -5 10 -10 17 -6 7 -25 35 -42 62 -17 28 -41 66 -54 85 -73 114 -164 263
-164 270 0 5 -4 10 -8 12 -5 2 -24 29 -43 60 -19 32 -86 139 -149 240 -63 100
-117 187 -119 192 -5 13 -28 36 -35 36 -3 0 -18 -21 -33 -47z"/>
<path d="M11361 8358 c-16 -5 -18 -19 -18 -87 l-1 -81 224 0 c123 0 224 -3
225 -7 3 -41 1 -1404 -3 -1408 -3 -3 -34 12 -69 33 -113 69 -313 133 -461 147
-127 13 -241 6 -382 -21 -112 -22 -302 -99 -314 -126 -2 -5 -8 -8 -13 -8 -32
0 -226 -175 -291 -261 -82 -110 -148 -258 -182 -407 -24 -108 -30 -172 -31
-327 0 -164 8 -256 31 -355 11 -46 14 -60 18 -79 6 -26 55 -149 79 -196 66
-133 188 -274 300 -348 28 -19 54 -34 57 -34 3 0 24 -12 48 -26 23 -15 42 -25
42 -22 0 3 12 -1 28 -9 35 -18 168 -55 230 -64 61 -9 280 -8 357 1 63 8 223
45 240 55 6 4 15 7 22 8 17 3 170 81 183 94 20 20 105 85 109 82 2 -1 4 -48 4
-105 l-1 -102 444 -1 444 0 0 83 c0 79 -1 83 -22 84 -13 1 -85 1 -160 1 -122
0 -138 2 -139 16 0 10 0 793 -1 1742 l0 1725 -27 5 c-14 4 -41 3 -59 -1 -17
-4 -34 -3 -37 1 -3 4 -19 4 -37 1 -18 -4 -50 -4 -70 0 -21 3 -38 3 -38 -1 0
-4 -18 -4 -40 0 -22 4 -40 4 -40 1 0 -4 -21 -4 -47 -1 -27 3 -76 3 -111 0 -35
-3 -65 -4 -68 -1 -6 7 -161 4 -173 -3 -5 -4 -12 -2 -15 3 -4 5 -21 5 -42 1
-20 -5 -42 -6 -49 -4 -20 8 -125 10 -144 2z m12 -1604 c34 -8 73 -17 87 -20
37 -8 204 -90 219 -108 8 -9 17 -16 22 -16 5 0 28 -18 51 -39 l41 -39 0 -671
c0 -768 12 -679 -108 -796 -100 -97 -232 -172 -341 -192 -74 -13 -242 -7 -299
12 -196 66 -327 269 -370 575 -20 135 -23 186 -23 355 1 170 5 236 23 370 17
116 99 351 127 363 4 2 8 8 8 14 0 10 11 23 73 85 112 113 300 154 490 107z"/>
<path d="M3376 8030 c-9 -3 70 -138 240 -410 140 -223 260 -414 269 -425 8
-10 15 -23 15 -28 0 -4 11 -23 25 -41 14 -18 25 -36 25 -40 0 -4 5 -12 10 -19
9 -10 82 -125 115 -180 10 -17 69 -111 153 -242 26 -41 52 -83 57 -93 9 -16
46 -75 121 -192 37 -59 78 -124 94 -151 8 -14 50 -82 93 -150 43 -68 84 -133
90 -143 123 -198 208 -333 215 -341 5 -6 11 -15 13 -21 2 -5 39 -65 82 -134
43 -69 84 -134 90 -145 7 -11 15 -22 18 -25 3 -3 8 -10 10 -15 2 -6 44 -74 92
-150 49 -77 93 -147 98 -155 120 -192 184 -294 209 -335 16 -27 57 -93 90
-145 33 -52 78 -124 100 -160 88 -142 154 -248 198 -315 25 -38 46 -72 47 -75
3 -19 58 -91 64 -84 4 5 61 95 126 199 65 105 132 213 150 240 86 134 210 334
226 367 l19 36 -130 207 c-72 114 -130 208 -130 210 0 1 -21 36 -47 76 -27 41
-53 83 -60 94 -20 32 -103 166 -138 220 -69 108 -181 287 -196 313 -9 15 -116
186 -238 380 -121 195 -221 357 -221 362 0 5 -4 10 -8 12 -7 2 -90 131 -127
196 -5 10 -30 49 -55 87 -24 39 -49 77 -55 87 -5 9 -25 40 -43 70 -18 29 -38
62 -45 73 -7 11 -15 22 -18 25 -3 3 -8 10 -10 15 -2 6 -62 103 -132 215 -71
113 -134 214 -140 225 -7 11 -15 22 -18 25 -3 3 -16 25 -30 50 -13 25 -30 51
-37 58 -6 8 -17 23 -23 35 -20 38 -192 311 -205 326 -11 12 -93 15 -524 15
-281 1 -517 -1 -524 -4z"/>
<path d="M0 6838 l0 -87 76 -3 76 -3 64 -140 c98 -218 110 -244 153 -338 51
-112 63 -138 96 -212 15 -33 37 -82 50 -110 13 -27 32 -70 43 -95 11 -25 34
-74 50 -110 16 -36 40 -87 52 -115 13 -27 59 -129 102 -225 44 -96 92 -202
106 -234 15 -33 72 -159 128 -280 l100 -221 88 0 88 0 20 50 c36 92 240 600
253 630 8 17 68 165 134 330 66 165 134 336 152 380 17 44 35 84 40 89 5 5 17
-10 27 -35 11 -24 39 -84 62 -134 23 -49 55 -117 70 -150 15 -33 44 -96 65
-140 20 -44 48 -102 60 -130 13 -27 43 -93 68 -145 73 -156 99 -212 127 -275
15 -33 45 -98 68 -145 22 -47 54 -116 72 -155 18 -38 43 -94 56 -122 l25 -53
62 -1 c34 -1 67 0 72 1 6 2 17 3 26 2 12 0 28 31 59 116 24 64 49 131 56 147
13 33 110 289 139 370 10 28 22 54 27 60 4 5 8 15 8 23 0 8 11 40 24 71 13 31
39 99 59 151 19 52 38 104 42 115 5 11 9 25 11 30 4 14 132 346 141 365 3 8 7
18 7 22 1 3 4 10 9 14 4 4 7 18 7 30 0 13 4 25 9 28 5 3 12 18 16 33 3 16 12
42 20 58 7 17 27 68 44 115 18 47 36 94 40 105 12 26 36 89 37 95 0 3 4 14 9
25 4 11 16 40 25 65 l18 45 121 3 121 3 0 83 c0 71 -2 83 -17 84 -27 2 -99 3
-109 1 -5 -1 -12 -1 -16 1 -5 1 -28 1 -53 1 -25 0 -48 0 -52 -1 -5 -2 -11 -2
-15 -1 -7 1 -66 1 -110 1 -10 0 -65 -1 -123 -1 -58 0 -111 0 -117 0 -7 0 -39
1 -71 2 -31 1 -60 -1 -63 -4 -6 -6 -7 -27 -5 -124 l1 -43 155 0 c85 0 155 -3
155 -7 0 -7 -62 -174 -81 -218 -11 -26 -99 -257 -103 -270 -2 -5 -8 -21 -13
-35 -6 -14 -22 -56 -36 -95 -14 -38 -34 -92 -45 -120 -11 -27 -62 -162 -115
-300 -52 -137 -100 -263 -107 -280 l-12 -30 -22 45 c-27 58 -72 159 -126 280
-23 52 -64 142 -91 198 -27 57 -49 107 -49 111 0 5 -18 45 -40 90 -22 45 -40
83 -40 85 0 2 -19 43 -42 92 -23 49 -43 94 -44 99 -2 8 -91 206 -210 466 -15
33 -33 56 -42 57 -67 5 -127 1 -137 -10 -7 -7 -42 -89 -79 -183 -37 -93 -73
-183 -81 -200 -7 -16 -25 -61 -39 -100 -15 -38 -36 -89 -47 -112 -10 -24 -19
-46 -19 -49 0 -3 -6 -20 -14 -37 -20 -47 -71 -171 -72 -177 0 -3 -5 -16 -11
-30 -6 -14 -63 -155 -127 -313 -136 -339 -131 -328 -141 -296 -4 13 -23 57
-41 97 -19 41 -34 75 -34 77 0 2 -13 32 -29 67 -16 35 -38 84 -50 111 -12 26
-29 66 -40 90 -10 23 -69 157 -131 297 -61 140 -118 269 -125 285 -39 85 -135
306 -135 310 0 2 57 6 128 7 l127 3 1 70 c0 39 -1 75 -4 82 -3 10 -83 17 -147
13 -11 -1 -26 -1 -32 -1 -7 0 -60 0 -118 0 -58 0 -112 0 -120 0 -8 0 -62 0
-120 0 -126 0 -112 0 -257 1 -65 1 -122 -1 -128 -5 -5 -3 -10 -3 -10 2 0 4
-20 8 -45 8 l-45 0 0 -87z"/>
</g>
</svg>
